<svg width="54" height="51" viewBox="0 0 54 51" fill="none" xmlns="http://www.w3.org/2000/svg">
<path d="M23.7027 5.70875C23.7027 4.77745 23.4265 3.86706 22.9091 3.09271C22.3917 2.31836 21.6563 1.71483 20.7959 1.35843C19.9355 1.00204 18.9887 0.908791 18.0753 1.09048C17.1619 1.27217 16.3228 1.72063 15.6643 2.37916C15.0058 3.03769 14.5573 3.87671 14.3756 4.79012C14.1939 5.70353 14.2872 6.6503 14.6436 7.51071C15 8.37112 15.6035 9.10653 16.3779 9.62393C17.1522 10.1413 18.0626 10.4175 18.9939 10.4175C20.2427 10.4175 21.4404 9.9214 22.3235 9.03834C23.2066 8.15528 23.7027 6.95759 23.7027 5.70875Z" fill="#EC5E73" stroke="white" stroke-width="0.25"/>
<path d="M16.8103 27.5819C17.1712 28.2239 17.768 28.7002 18.4741 28.9097C19.1802 29.1193 19.9401 29.0456 20.5928 28.7044C21.8216 28.0782 22.4516 26.4657 21.8616 25.1594C21.5828 24.5444 21.0666 23.6619 20.8116 22.9769C20.1916 21.2898 20.1723 19.4406 20.7571 17.741C21.3418 16.0414 22.4948 14.5954 24.0216 13.6469C25.5907 12.6746 27.45 12.2805 29.2786 12.5327C31.1072 12.7849 32.7905 13.6675 34.0378 15.0282C35.0453 16.1157 35.5003 17.4682 37.1753 17.6432C38.6328 17.7944 39.8491 16.8619 40.1766 15.4569C40.3703 14.6269 40.1303 13.9319 39.6916 13.2307C37.3353 9.45567 33.6728 7.02942 29.2328 6.61317C28.4253 6.53692 25.1203 6.66317 24.6953 7.39067C24.3591 7.96567 24.0528 8.61192 23.6791 9.09567C22.7252 10.3614 21.3179 11.2082 19.7528 11.4582C19.2066 11.5544 18.4191 11.4732 17.7728 11.6569C17.6218 11.6989 17.489 11.79 17.3953 11.9157C16.6266 12.9151 15.9748 13.9992 15.4528 15.1469C14.1216 18.1369 14.2716 21.7644 15.4441 24.8194C15.7916 25.7269 16.3128 26.6807 16.8103 27.5819Z" fill="#EC5E73" stroke="white" stroke-width="0.25"/>
<path d="M8.26225 22.8491C6.856 21.8616 5.17725 22.1116 4.181 23.5341C2.89555 25.3511 2.05699 27.4458 1.7335 29.6479C1.211 33.1745 2.02308 36.3454 4.16975 39.1604C4.7485 39.9191 5.59975 39.6979 6.411 39.8229C9.03725 40.2279 10.431 41.7716 11.4735 44.0766C11.4996 44.1371 11.5384 44.1912 11.5874 44.2352C11.6364 44.2792 11.6943 44.3121 11.7573 44.3316C15.6448 45.6266 19.4973 44.7904 22.841 42.4729C24.2248 41.5129 25.421 40.1916 26.4485 38.8241C28.9323 35.5141 24.3323 32.0579 21.9048 35.4779C20.2073 37.8687 17.9481 39.0554 15.1273 39.0379C10.286 39.0079 6.68475 34.5416 7.55475 29.8141C7.66225 29.2291 7.876 28.3179 8.251 27.6716C9.08975 26.2254 9.7985 25.0904 8.846 23.4729C8.69483 23.2282 8.49638 23.0161 8.26225 22.8491Z" fill="#EC5E73" stroke="white" stroke-width="0.25"/>
<path d="M28.5604 23.5342C25.6904 24.393 25.8254 28.4767 28.8267 28.9792C29.8304 29.1467 31.1029 28.6455 32.2254 28.6617C39.6542 28.7705 42.8379 37.4367 37.4079 42.4592C36.9754 42.858 36.4092 43.1355 35.8904 43.4592C34.5667 44.2855 32.7304 44.1205 32.0479 45.9167C31.5229 47.298 32.0467 48.7505 33.4404 49.383C34.6829 49.9467 35.6092 49.5992 36.9254 49.1255C40.1242 47.9742 42.6504 45.983 44.3529 43.0455C45.2404 41.5167 45.6642 39.8917 45.8679 38.1355C45.9979 37.0242 45.1904 36.663 44.6117 35.968C43.1154 34.1717 42.9142 32.153 43.5842 29.9505C43.9254 28.8292 43.2029 28.2717 42.5904 27.5067C40.1954 24.5205 36.4467 22.9905 32.6304 22.9855C31.2542 22.9684 29.883 23.1533 28.5604 23.5342Z" fill="#EC5E73" stroke="white" stroke-width="0.25"/>
<path d="M53.716 32.1695C53.716 31.2375 53.4396 30.3264 52.9218 29.5514C52.404 28.7764 51.668 28.1724 50.8069 27.8157C49.9458 27.4591 48.9983 27.3658 48.0842 27.5476C47.17 27.7294 46.3303 28.1782 45.6713 28.8373C45.0122 29.4963 44.5634 30.336 44.3816 31.2502C44.1997 32.1643 44.2931 33.1118 44.6497 33.9729C45.0064 34.834 45.6104 35.57 46.3854 36.0878C47.1604 36.6056 48.0715 36.882 49.0035 36.882C50.2533 36.882 51.452 36.3855 52.3358 35.5018C53.2195 34.618 53.716 33.4194 53.716 32.1695Z" fill="#EC5E73" stroke="white" stroke-width="0.25"/>
<path d="M10.4175 45.572C10.4175 44.6407 10.1413 43.7303 9.62393 42.956C9.10653 42.1816 8.37112 41.5781 7.51071 41.2217C6.6503 40.8653 5.70353 40.7721 4.79012 40.9538C3.87671 41.1354 3.03769 41.5839 2.37916 42.2424C1.72063 42.901 1.27217 43.74 1.09048 44.6534C0.908791 45.5668 1.00204 46.5136 1.35843 47.374C1.71483 48.2344 2.31836 48.9698 3.09271 49.4872C3.86706 50.0046 4.77745 50.2808 5.70875 50.2808C6.95759 50.2808 8.15528 49.7847 9.03834 48.9016C9.9214 48.0186 10.4175 46.8209 10.4175 45.572Z" fill="#EC5E73" stroke="white" stroke-width="0.25"/>
</svg>
